<?xml version="1.0" standalone="no"?><!-- Generator: Gravit.io --><svg xmlns="http://www.w3.org/2000/svg" xmlns:xlink="http://www.w3.org/1999/xlink" style="isolation:isolate" viewBox="0 0 841.89 595.276" width="841.89" height="595.276"><defs><clipPath id="_clipPath_xyS70INqYSIkI7jDbZbyvvrnoOYgRNCT"><rect width="841.89" height="595.276"/></clipPath></defs><g clip-path="url(#_clipPath_xyS70INqYSIkI7jDbZbyvvrnoOYgRNCT)"><circle vector-effect="non-scaling-stroke" cx="427.945" cy="297.638" r="269.055" fill="rgba(255,255,255,0.0)"/><path d=" M 697.236 297.638 C 697.236 148.912 576.67 28.346 427.945 28.346 C 279.219 28.346 158.654 148.912 158.654 297.638 C 158.654 446.363 279.219 566.929 427.945 566.929 C 516.626 566.929 595.276 524.049 644.344 457.907 L 480.905 127.155 C 477.214 119.687 480.277 110.642 487.745 106.952 C 495.212 103.261 504.257 106.324 507.947 113.792 L 663.384 428.347 C 684.923 389.634 697.236 345.083 697.236 297.638 Z  M 367.054 377.287 C 374.525 380.97 377.596 390.012 373.913 397.483 L 339.147 468.01 C 336.536 473.306 331.231 476.388 325.702 476.423 L 325.491 476.423 C 323.289 476.406 321.057 475.908 318.951 474.869 C 311.479 471.186 308.408 462.144 312.091 454.673 L 346.858 384.146 C 350.54 376.675 359.585 373.605 367.054 377.287 Z  M 476.752 189.19 L 409.111 326.25 L 541.251 326.25 C 549.581 326.25 556.333 333.003 556.333 341.333 C 556.333 349.663 549.581 356.415 541.251 356.415 C 541.251 356.415 385.018 356.418 384.838 356.418 C 382.596 356.418 380.321 355.917 378.175 354.858 C 370.705 351.172 367.638 342.127 371.325 334.658 L 449.703 175.841 C 453.39 168.372 462.433 165.304 469.902 168.992 C 477.372 172.678 480.439 181.721 476.752 189.19 Z " fill="rgb(255,255,255)"/></g></svg>